<?xml version="1.0" standalone="no"?>
<!DOCTYPE svg PUBLIC "-//W3C//DTD SVG 20010904//EN"
        "http://www.w3.org/TR/2001/REC-SVG-20010904/DTD/svg10.dtd">
<svg version="1.0" xmlns="http://www.w3.org/2000/svg"
     width="700.000000pt" height="700.000000pt" viewBox="0 0 700.000000 700.000000"
     preserveAspectRatio="xMidYMid meet">
    <metadata>
        Created by potrace 1.14, written by Peter Selinger 2001-2017
    </metadata>
    <g transform="translate(0.000000,700.000000) scale(0.100000,-0.100000)"
       fill="#000000" stroke="none">
        <path d="M825 6413 c-109 -22 -202 -108 -230 -212 -9 -34 -12 -241 -12 -817 0
-742 1 -773 20 -823 23 -65 86 -131 153 -162 l49 -23 775 -1 c840 -1 849 0
920 53 50 37 68 60 95 117 79 165 -21 369 -198 404 -30 6 -210 10 -426 10
-205 0 -375 2 -377 4 -5 5 136 149 212 217 308 276 681 474 1084 576 114 28
126 31 180 39 20 3 45 7 55 9 11 2 52 7 90 11 39 4 81 9 95 11 33 6 358 6 390
0 14 -2 50 -7 80 -10 131 -14 330 -59 475 -108 690 -234 1243 -798 1467 -1493
35 -109 70 -260 84 -355 2 -19 6 -48 9 -65 5 -37 14 -162 19 -277 9 -183 107
-293 272 -306 124 -9 234 58 287 176 22 51 27 170 14 342 -10 135 -37 311 -62
410 -8 30 -16 66 -19 80 -10 55 -59 208 -103 323 -254 672 -775 1246 -1422
1568 -331 164 -689 264 -1056 295 -163 14 -508 8 -600 -11 -11 -2 -42 -6 -70
-9 -27 -3 -86 -13 -130 -22 -44 -8 -91 -17 -105 -20 -107 -20 -356 -96 -490
-151 -411 -166 -733 -379 -1058 -697 -62 -61 -116 -112 -120 -113 -4 -2 -7
180 -7 405 -1 402 -1 408 -23 455 -29 62 -91 123 -149 148 -45 19 -127 30
-168 22z"/>
        <path d="M773 3774 c-62 -22 -136 -94 -163 -156 -20 -44 -23 -70 -24 -158 0
-330 58 -639 181 -975 146 -395 364 -736 668 -1040 71 -72 150 -146 174 -165
24 -19 48 -40 55 -45 101 -92 344 -249 535 -344 196 -99 517 -213 657 -235 22
-4 55 -11 74 -16 49 -12 236 -39 328 -47 196 -16 510 -5 682 23 19 3 46 7 60
9 14 2 50 9 80 15 30 6 69 14 85 16 51 9 305 83 395 116 125 45 170 65 330
145 312 154 546 322 816 585 67 65 123 118 125 118 2 0 4 -177 3 -392 -1 -433
1 -455 62 -531 141 -179 430 -133 501 80 18 55 19 96 19 843 -1 781 -1 785
-23 831 -27 60 -92 125 -152 152 -46 21 -54 21 -841 21 l-795 0 -56 -25 c-166
-77 -223 -274 -123 -424 41 -62 97 -103 163 -121 34 -8 159 -12 430 -12 211
-1 385 -3 388 -6 7 -6 -204 -212 -287 -281 -99 -81 -222 -166 -365 -252 -174
-104 -508 -235 -685 -269 -13 -3 -55 -12 -92 -19 -186 -40 -510 -58 -683 -40
-636 66 -1183 352 -1582 826 -250 298 -421 653 -497 1032 -34 171 -39 214 -50
450 -4 70 -10 101 -31 143 -31 63 -100 127 -158 147 -57 19 -153 19 -204 1z"/>
    </g>
</svg>
