<svg id="visual" viewBox="0 0 540 960" width="540" height="960"
     xmlns="http://www.w3.org/2000/svg" version="1.1">
    <rect x="0" y="0" width="540" height="960" fill="#001220"></rect>
    <defs>
        <linearGradient id="grad1_0" x1="0%" y1="0%" x2="100%" y2="100%">
            <stop offset="30%" stop-color="#001220" stop-opacity="1"></stop>
            <stop offset="70%" stop-color="#001220" stop-opacity="1"></stop>
        </linearGradient>
    </defs>
    <defs>
        <linearGradient id="grad2_0" x1="0%" y1="0%" x2="100%" y2="100%">
            <stop offset="30%" stop-color="#001220" stop-opacity="1"></stop>
            <stop offset="70%" stop-color="#001220" stop-opacity="1"></stop>
        </linearGradient>
    </defs>
    <g transform="translate(540, 0)">
        <path d="M0 486C-69.7 484.9 -139.5 483.8 -186 449C-232.5 414.3 -255.7 345.9 -299.8 299.8C-343.9 253.7 -408.9 229.9 -443.5 183.7C-478 137.4 -482 68.7 -486 0L0 0Z"
              fill="#FBAE3C"></path>
    </g>
    <g transform="translate(0, 960)">
        <path d="M0 -486C47.9 -437.7 95.7 -389.3 152.7 -368.6C209.6 -347.9 275.7 -354.9 329.5 -329.5C383.3 -304.1 425 -246.3 449 -186C473.1 -125.7 479.5 -62.8 486 0L0 0Z"
              fill="#FBAE3C"></path>
    </g>
</svg>