<svg xmlns="http://www.w3.org/2000/svg" version="1.1" xmlns:xlink="http://www.w3.org/1999/xlink" xmlns:svgjs="http://svgjs.com/svgjs" width="512" height="512" x="0" y="0" viewBox="0 0 512 512" style="enable-background:new 0 0 512 512" xml:space="preserve" class=""><g><path d="M348.28 423.86c-21.799-14.953-48.81-24.159-77.28-26.57V244.95a139.204 139.204 0 0 1-30 0v152.339c-28.475 2.411-55.48 11.616-77.28 26.561-26.34 18.07-43.39 43.16-48 70.67-1.533 9.135 5.511 17.48 14.79 17.48h250.97c9.321 0 16.324-8.398 14.8-17.48-4.62-27.51-21.66-52.6-48-70.66zM256 215.76c59.48 0 107.87-48.4 107.87-107.88C363.87 48.39 315.48 0 256 0c-59.49 0-107.88 48.39-107.88 107.88 0 59.48 48.39 107.88 107.88 107.88zM215.91 76.2c0-18.47 15.03-33.51 33.5-33.51h13.17c15.37 0 28.74 10.41 32.49 25.31 2.02 8.03-2.85 16.19-10.88 18.21-8.03 2.03-16.19-2.85-18.21-10.88-.33-1.31-1.61-2.64-3.4-2.64h-13.17c-1.93 0-3.5 1.58-3.5 3.51v13.17c0 1.94 1.57 3.51 3.5 3.51h13.17c18.47 0 33.5 15.04 33.5 33.51v13.16c0 18.48-15.03 33.51-33.5 33.51h-13.17a33.476 33.476 0 0 1-32.49-25.28c-2.03-8.03 2.84-16.19 10.87-18.22s16.19 2.84 18.22 10.87c.32 1.27 1.52 2.63 3.4 2.63h13.17c1.93 0 3.5-1.57 3.5-3.51v-13.16c0-1.93-1.57-3.51-3.5-3.51h-13.17c-18.47 0-33.5-15.03-33.5-33.51z" fill="#00ff96" data-original="#000000" data-darkreader-inline-fill="" style="--darkreader-inline-fill:#10d092;" class=""></path><path d="M301 231.94v98.73c18.009 3.081 37.237 2.217 53.11-6.99 34.8-20.19 39.67-72.24 39.86-74.45.55-6.29-2.91-12.25-8.64-14.9-2.01-.93-49.54-22.49-84.33-2.39zM118.02 282.23c.19 2.21 5.06 54.26 39.86 74.45 15.917 9.224 35.131 10.062 53.12 6.99v-98.73c-34.79-20.11-82.32 1.46-84.33 2.39a14.992 14.992 0 0 0-8.65 14.9zM108.934 115.243c0-8.284-6.716-15-15-15H62.996c-8.284 0-15 6.716-15 15s6.716 15 15 15h30.938c8.284 0 15-6.716 15-15zM95.318 69.483c5.857 5.857 15.355 5.858 21.213 0s5.858-15.355 0-21.213L94.654 26.393c-5.857-5.857-15.355-5.858-21.213 0s-5.858 15.355 0 21.213zM116.531 161.003c-5.856-5.857-15.354-5.858-21.213 0l-21.877 21.876c-5.858 5.858-5.858 15.355 0 21.213 5.857 5.858 15.354 5.858 21.213 0l21.877-21.876c5.859-5.858 5.859-15.355 0-21.213zM449.004 100.243h-30.938c-8.284 0-15 6.716-15 15s6.716 15 15 15h30.938c8.284 0 15-6.716 15-15s-6.716-15-15-15zM416.682 69.483l21.877-21.876c5.858-5.858 5.858-15.355 0-21.213-5.857-5.858-15.355-5.857-21.213 0L395.469 48.27c-5.858 5.858-5.858 15.355 0 21.213 5.857 5.858 15.354 5.858 21.213 0zM416.682 161.002c-5.857-5.857-15.355-5.857-21.213 0-5.858 5.858-5.858 15.355 0 21.213l21.877 21.876c5.858 5.858 15.355 5.857 21.213 0 5.858-5.858 5.858-15.355 0-21.213z" fill="#00ff96" data-original="#000000" data-darkreader-inline-fill="" style="--darkreader-inline-fill:#10d092;" class=""></path></g></svg>