<svg id="visual" viewBox="0 0 540 960" width="540" height="960"
     xmlns="http://www.w3.org/2000/svg" version="1.1">
    <rect x="0" y="0" width="540" height="960" fill="#001220"></rect>
    <path d="M0 480L12.8 493.2C25.7 506.3 51.3 532.7 77 527C102.7 521.3 128.3 483.7 154 456.5C179.7 429.3 205.3 412.7 231.2 411.7C257 410.7 283 425.3 308.8 451.5C334.7 477.7 360.3 515.3 386 496.7C411.7 478 437.3 403 463 399.5C488.7 396 514.3 464 527.2 498L540 532L540 961L527.2 961C514.3 961 488.7 961 463 961C437.3 961 411.7 961 386 961C360.3 961 334.7 961 308.8 961C283 961 257 961 231.2 961C205.3 961 179.7 961 154 961C128.3 961 102.7 961 77 961C51.3 961 25.7 961 12.8 961L0 961Z"
          fill="#fa7268"></path>
    <path d="M0 636L12.8 609.5C25.7 583 51.3 530 77 499.7C102.7 469.3 128.3 461.7 154 461.8C179.7 462 205.3 470 231.2 467C257 464 283 450 308.8 470.3C334.7 490.7 360.3 545.3 386 557.5C411.7 569.7 437.3 539.3 463 530.3C488.7 521.3 514.3 533.7 527.2 539.8L540 546L540 961L527.2 961C514.3 961 488.7 961 463 961C437.3 961 411.7 961 386 961C360.3 961 334.7 961 308.8 961C283 961 257 961 231.2 961C205.3 961 179.7 961 154 961C128.3 961 102.7 961 77 961C51.3 961 25.7 961 12.8 961L0 961Z"
          fill="#ef5f67"></path>
    <path d="M0 652L12.8 660.8C25.7 669.7 51.3 687.3 77 699.2C102.7 711 128.3 717 154 709C179.7 701 205.3 679 231.2 670.2C257 661.3 283 665.7 308.8 647C334.7 628.3 360.3 586.7 386 597C411.7 607.3 437.3 669.7 463 688.8C488.7 708 514.3 684 527.2 672L540 660L540 961L527.2 961C514.3 961 488.7 961 463 961C437.3 961 411.7 961 386 961C360.3 961 334.7 961 308.8 961C283 961 257 961 231.2 961C205.3 961 179.7 961 154 961C128.3 961 102.7 961 77 961C51.3 961 25.7 961 12.8 961L0 961Z"
          fill="#e34c67"></path>
    <path d="M0 814L12.8 794.3C25.7 774.7 51.3 735.3 77 721.7C102.7 708 128.3 720 154 720.3C179.7 720.7 205.3 709.3 231.2 708.5C257 707.7 283 717.3 308.8 721.2C334.7 725 360.3 723 386 731.3C411.7 739.7 437.3 758.3 463 756.7C488.7 755 514.3 733 527.2 722L540 711L540 961L527.2 961C514.3 961 488.7 961 463 961C437.3 961 411.7 961 386 961C360.3 961 334.7 961 308.8 961C283 961 257 961 231.2 961C205.3 961 179.7 961 154 961C128.3 961 102.7 961 77 961C51.3 961 25.7 961 12.8 961L0 961Z"
          fill="#d53867"></path>
    <path d="M0 774L12.8 782.7C25.7 791.3 51.3 808.7 77 825.2C102.7 841.7 128.3 857.3 154 848.2C179.7 839 205.3 805 231.2 802.7C257 800.3 283 829.7 308.8 833.2C334.7 836.7 360.3 814.3 386 817.8C411.7 821.3 437.3 850.7 463 861.3C488.7 872 514.3 864 527.2 860L540 856L540 961L527.2 961C514.3 961 488.7 961 463 961C437.3 961 411.7 961 386 961C360.3 961 334.7 961 308.8 961C283 961 257 961 231.2 961C205.3 961 179.7 961 154 961C128.3 961 102.7 961 77 961C51.3 961 25.7 961 12.8 961L0 961Z"
          fill="#c62368"></path>
</svg>