<svg id="visual" viewBox="0 0 540 960" width="540" height="960"
     xmlns="http://www.w3.org/2000/svg" version="1.1">
    <rect x="0" y="0" width="540" height="960" fill="#001829"></rect>
    <g fill="#297EA6">
        <path d="M0 -109.5L24.6 -33.8L104.1 -33.8L39.8 12.9L64.4 88.6L0 41.8L-64.4 88.6L-39.8 12.9L-104.1 -33.8L-24.6 -33.8Z"
              transform="translate(406 180)"></path>
        <path d="M0 -48.1L10.8 -14.9L45.8 -14.9L17.5 5.7L28.3 38.9L0 18.4L-28.3 38.9L-17.5 5.7L-45.8 -14.9L-10.8 -14.9Z"
              transform="translate(373 543)"></path>
        <path d="M0 -96.3L21.6 -29.7L91.6 -29.7L35 11.4L56.6 77.9L0 36.8L-56.6 77.9L-35 11.4L-91.6 -29.7L-21.6 -29.7Z"
              transform="translate(109 678)"></path>
        <path d="M0 -57.6L12.9 -17.8L54.8 -17.8L20.9 6.8L33.8 46.6L0 22L-33.8 46.6L-20.9 6.8L-54.8 -17.8L-12.9 -17.8Z"
              transform="translate(73 173)"></path>
    </g>
</svg>