<svg id="visual" viewBox="0 0 540 960" width="540" height="960"
     xmlns="http://www.w3.org/2000/svg" version="1.1">
    <rect x="0" y="0" width="540" height="960" fill="#002233"></rect>
    <path d="M0 555L12.8 562.7C25.7 570.3 51.3 585.7 77 555.7C102.7 525.7 128.3 450.3 154 458.8C179.7 467.3 205.3 559.7 231.2 580.8C257 602 283 552 308.8 484.5C334.7 417 360.3 332 386 350.7C411.7 369.3 437.3 491.7 463 550.3C488.7 609 514.3 604 527.2 601.5L540 599L540 961L527.2 961C514.3 961 488.7 961 463 961C437.3 961 411.7 961 386 961C360.3 961 334.7 961 308.8 961C283 961 257 961 231.2 961C205.3 961 179.7 961 154 961C128.3 961 102.7 961 77 961C51.3 961 25.7 961 12.8 961L0 961Z"
          fill="#0066FF" stroke-linecap="round" stroke-linejoin="miter"></path>
</svg>